<svg width="34" height="33" viewBox="0 0 34 33" fill="none" xmlns="http://www.w3.org/2000/svg">
<path d="M16.1703 32.3344C10.8341 26.9982 5.49796 21.662 6.51479e-05 16.1641C5.33432 10.8299 10.6686 5.49562 16.1645 -0.000278228C17.1594 0.994605 18.1542 1.98949 19.1793 3.01452C15.5927 6.64626 12.0062 10.278 8.31102 14.0198C16.5121 14.0039 24.7132 13.988 33.1628 13.9715C33.2719 14.3006 33.3162 14.4573 33.3141 14.7828C33.314 14.8598 33.3138 14.9367 33.3137 15.016C33.3128 15.0979 33.3119 15.1799 33.311 15.2644C33.3107 15.3491 33.3103 15.4339 33.3099 15.5212C33.3086 15.7912 33.3064 16.0612 33.3041 16.3312C33.3031 16.5145 33.3021 16.6978 33.3012 16.8812C33.2988 17.33 33.2956 17.7788 33.2919 18.2277C32.9989 18.3389 32.7576 18.3831 32.4451 18.3835C32.3587 18.384 32.2723 18.3844 32.1832 18.3848C32.0888 18.3846 31.9944 18.3844 31.8971 18.3842C31.7964 18.3845 31.6956 18.3848 31.5919 18.3851C31.2535 18.386 30.9152 18.3859 30.5768 18.3858C30.3346 18.3863 30.0924 18.3868 29.8502 18.3873C29.3283 18.3883 28.8064 18.389 28.2845 18.3892C27.5299 18.3896 26.7754 18.3907 26.0208 18.392C24.7966 18.394 23.5723 18.3955 22.3481 18.3966C21.1588 18.3976 19.9696 18.399 18.7804 18.4007C18.6693 18.4009 18.6693 18.4009 18.556 18.401C17.9768 18.4019 17.3977 18.4027 16.8186 18.4036C13.9799 18.4078 11.1412 18.4105 8.30249 18.4135C11.8749 22.0313 15.4474 25.6492 19.1281 29.3767C18.152 30.3527 17.176 31.3288 16.1703 32.3344Z" fill="black"/>
</svg>
