<svg width="34" height="33" viewBox="0 0 34 33" fill="none" xmlns="http://www.w3.org/2000/svg">
<path d="M17.1441 32.3344C22.4803 26.9982 27.8165 21.662 33.3144 16.1641C27.9801 10.8299 22.6459 5.49562 17.15 -0.000278228C16.1551 0.994605 15.1602 1.98949 14.1352 3.01452C17.7217 6.64626 21.3082 10.278 25.0034 14.0198C16.8023 14.0039 8.60124 13.988 0.151629 13.9715C0.0425046 14.3006 -0.00179073 14.4573 0.000314084 14.7828C0.000473399 14.8598 0.000635412 14.9367 0.000799279 15.016C0.00166734 15.0979 0.00253539 15.1799 0.00342907 15.2644C0.00378783 15.3491 0.0041465 15.4339 0.00451587 15.5212C0.00580767 15.7912 0.0080552 16.0612 0.0103273 16.3312C0.0113716 16.5145 0.0123549 16.6978 0.0132722 16.8812C0.0156552 17.33 0.0188967 17.7788 0.0225916 18.2277C0.315567 18.3389 0.556899 18.3831 0.869315 18.3835C0.955748 18.384 1.04218 18.3844 1.13123 18.3848C1.22566 18.3846 1.32009 18.3844 1.41738 18.3842C1.51809 18.3845 1.61881 18.3848 1.72257 18.3851C2.06094 18.386 2.3993 18.3859 2.73767 18.3858C2.97987 18.3863 3.22206 18.3868 3.46426 18.3873C3.98616 18.3883 4.50805 18.389 5.02994 18.3892C5.78451 18.3896 6.53908 18.3907 7.29366 18.392C8.5179 18.394 9.74214 18.3955 10.9664 18.3966C12.1556 18.3976 13.3449 18.399 14.5341 18.4007C14.6452 18.4009 14.6452 18.4009 14.7585 18.401C15.3376 18.4019 15.9168 18.4027 16.4959 18.4036C19.3346 18.4078 22.1733 18.4105 25.012 18.4135C21.4395 22.0313 17.8671 25.6492 14.1864 29.3767C15.1624 30.3527 16.1385 31.3288 17.1441 32.3344Z" fill="black"/>
</svg>
