<svg width="25" height="25" viewBox="0 0 25 25" fill="none" xmlns="http://www.w3.org/2000/svg">
<path d="M2.13178 0C9.67829 0 17.2248 0 25 0C25 7.54377 25 15.0875 25 22.8599C23.593 22.8599 22.186 22.8599 20.7364 22.8599C20.7045 17.7558 20.6725 12.6518 20.6395 7.393C14.8517 13.2033 9.06395 19.0136 3.10078 25C2.79092 24.8445 2.64879 24.765 2.42011 24.5333C2.36582 24.4788 2.31153 24.4243 2.2556 24.3681C2.19825 24.3096 2.1409 24.251 2.08182 24.1906C2.02215 24.1304 1.96247 24.0703 1.90099 24.0083C1.71099 23.8164 1.52167 23.6239 1.33236 23.4314C1.20346 23.301 1.07452 23.1707 0.945524 23.0404C0.629835 22.7214 0.314759 22.4017 0 22.0817C0.128501 21.7959 0.267891 21.594 0.488528 21.3728C0.549333 21.3114 0.610138 21.2499 0.672786 21.1866C0.73971 21.12 0.806634 21.0534 0.875585 20.9848C0.94658 20.9133 1.01757 20.8419 1.09072 20.7683C1.32936 20.5284 1.56869 20.2892 1.80801 20.05C1.97897 19.8785 2.14988 19.7069 2.32075 19.5352C2.68905 19.1654 3.05764 18.796 3.4265 18.4268C3.95982 17.8929 4.4926 17.3586 5.02525 16.8241C5.88945 15.957 6.75408 15.0903 7.61899 14.2239C8.45916 13.3822 9.29914 12.5403 10.1388 11.6982C10.2173 11.6195 10.2173 11.6195 10.2973 11.5393C10.7062 11.1292 11.1151 10.7191 11.524 10.309C13.5283 8.29871 15.5336 6.28951 17.5388 4.28016C12.4545 4.24805 7.37016 4.21595 2.13178 4.18288C2.13178 2.80253 2.13178 1.42218 2.13178 0Z" fill="white"/>
</svg>
